<?xml version="1.0" encoding="UTF-8"?>
<svg width="800" height="450" viewBox="0 0 800 450" fill="none" xmlns="http://www.w3.org/2000/svg">
  <rect width="800" height="450" fill="#F5F5F5"/>
  <rect x="150" y="150" width="500" height="240" rx="10" fill="#E2E2E2"/>
  
  <!-- Back seats -->
  <rect x="200" y="180" width="400" height="120" rx="15" fill="#CCCCCC"/>
  <line x1="400" y1="180" x2="400" y2="300" stroke="#BBBBBB" stroke-width="2"/>
  <path d="M200 240H600" stroke="#BBBBBB" stroke-width="2"/>
  
  <!-- Headrests -->
  <rect x="250" y="180" width="60" height="30" rx="5" fill="#BBBBBB"/>
  <rect x="490" y="180" width="60" height="30" rx="5" fill="#BBBBBB"/>
  
  <!-- Door panels -->
  <rect x="150" y="180" width="40" height="170" rx="5" fill="#D9D9D9"/>
  <rect x="610" y="180" width="40" height="170" rx="5" fill="#D9D9D9"/>
  
  <!-- Center armrest -->
  <rect x="370" y="245" width="60" height="40" rx="5" fill="#BBBBBB"/>
  
  <!-- Floor area -->
  <rect x="200" y="305" width="400" height="50" rx="5" fill="#D9D9D9"/>
  
  <!-- Rear window -->
  <path d="M200 350H600L580 390H220L200 350Z" fill="#D6D6D6"/>
  
  <!-- Floor mats -->
  <rect x="230" y="315" width="140" height="30" rx="3" fill="#BBBBBB"/>
  <rect x="430" y="315" width="140" height="30" rx="3" fill="#BBBBBB"/>

  <text x="400" y="130" font-family="Arial" font-size="24" fill="#888888" text-anchor="middle">Back Interior View</text>
</svg> 