<?xml version="1.0" encoding="UTF-8"?>
<svg width="800" height="450" viewBox="0 0 800 450" fill="none" xmlns="http://www.w3.org/2000/svg">
  <rect width="800" height="450" fill="#F5F5F5"/>
  <rect x="150" y="150" width="500" height="240" rx="10" fill="#E2E2E2"/>
  
  <!-- Dashboard -->
  <path d="M150 270H650V300C650 316.569 636.569 330 620 330H180C163.431 330 150 316.569 150 300V270Z" fill="#D9D9D9"/>
  
  <!-- Steering wheel -->
  <circle cx="250" cy="230" r="50" fill="#CCCCCC"/>
  <circle cx="250" cy="230" r="35" fill="#D9D9D9"/>
  <rect x="230" y="200" width="40" height="8" rx="4" fill="#BBBBBB"/>
  <rect x="230" y="250" width="40" height="8" rx="4" fill="#BBBBBB"/>
  <rect x="220" cy="230" width="60" height="8" rx="4" fill="#BBBBBB"/>
  
  <!-- Center console -->
  <rect x="350" y="220" width="100" height="80" rx="5" fill="#BBBBBB"/>
  <rect x="360" y="230" width="80" height="30" rx="3" fill="#AAAAAA"/>
  <rect x="360" y="270" width="30" height="20" rx="3" fill="#AAAAAA"/>
  <rect x="400" y="270" width="30" height="20" rx="3" fill="#AAAAAA"/>
  
  <!-- Passenger side -->
  <rect x="500" y="220" width="100" height="40" rx="5" fill="#CCCCCC"/>
  
  <!-- Windshield -->
  <path d="M190 150H610L580 200H220L190 150Z" fill="#D6D6D6"/>
  <path d="M220 200L580 200" stroke="#BBBBBB" stroke-width="2"/>
  
  <!-- Seats -->
  <rect x="200" y="300" width="100" height="70" rx="10" fill="#CCCCCC"/>
  <rect x="500" y="300" width="100" height="70" rx="10" fill="#CCCCCC"/>

  <text x="400" y="130" font-family="Arial" font-size="24" fill="#888888" text-anchor="middle">Front Interior View</text>
</svg> 